<svg width="18" height="18" viewBox="0 0 18 18" fill="none" xmlns="http://www.w3.org/2000/svg">
<g clip-path="url(#clip0_2148_151)">
<path d="M11.4234 4.01998H4.77256C4.09076 4.01998 3.71445 4.38323 3.71445 5.10809V13.3979C3.71445 14.1214 4.09076 14.4799 4.77256 14.4799H12.9608C13.6426 14.4799 14.013 14.1214 14.013 13.3979V6.70655L15.4509 5.24381V13.5205C15.4509 15.1155 14.6282 15.9388 13.0442 15.9388H4.68457C3.10657 15.9388 2.27783 15.1155 2.27783 13.5205V4.97942C2.27783 3.39044 3.10657 2.56104 4.68457 2.56104H12.8599L11.4234 4.01998Z" fill="white"/>
<path d="M7.45409 10.9661L8.94598 10.325L15.6416 3.53142L14.5222 2.40817L7.83394 9.20042L7.17267 10.6728C7.10081 10.841 7.28574 11.035 7.45409 10.9661ZM16.2014 2.96905L16.7136 2.43542C16.9958 2.13651 17.0024 1.72813 16.7228 1.4529L16.5304 1.25274C16.2806 1.00179 15.8685 1.04096 15.5949 1.31276L15.082 1.82881L16.2014 2.96905Z" fill="white"/>
</g>
<defs>
<clipPath id="clip0_2148_151">
<rect width="18" height="18" fill="white"/>
</clipPath>
</defs>
</svg>
