<svg width="24" height="24" viewBox="0 0 24 24" fill="none" xmlns="http://www.w3.org/2000/svg">
<path d="M7.37622 19.1264C6.84036 18.5906 7.06133 17.9829 7.45356 17.2482L9.40915 13.5911C9.68536 13.0829 9.945 12.8674 10.4311 12.8453L22.2697 12.3758C22.4188 12.3702 22.5072 12.2708 22.5072 12.1493C22.5017 12.0333 22.4188 11.9394 22.2752 11.9283L10.4256 11.4808C9.90633 11.4587 9.67984 11.2433 9.40915 10.7406L7.42041 6.99513C7.03924 6.29355 6.84589 5.70245 7.37069 5.17765C7.80158 4.74675 8.45897 4.80752 9.11636 5.10031L22.347 11.0058C22.6895 11.1604 22.9657 11.3262 23.148 11.5085C23.5402 11.9007 23.5402 12.3979 23.148 12.7901C22.9602 12.9779 22.6895 13.1381 22.347 13.2928L9.1716 19.1761C8.43688 19.5021 7.79606 19.5463 7.37622 19.1264Z" fill="current"/>
</svg>
