<svg width="23" height="19" viewBox="0 0 23 19" fill="none" xmlns="http://www.w3.org/2000/svg">
<g clip-path="url(#clip0_1199_1294)">
<path d="M0 9.4937C0 9.80682 0.13358 10.0949 0.376451 10.3329L8.43981 18.6367C8.68268 18.8747 8.9377 18.9874 9.22915 18.9874C9.82418 18.9874 10.2978 18.5365 10.2978 17.9102C10.2978 17.6097 10.1885 17.3091 9.99419 17.1212L7.27402 14.2656L2.46515 9.74421L2.21013 10.3579L6.12038 10.6084H21.4821C22.1135 10.6084 22.5507 10.145 22.5507 9.4937C22.5507 8.84242 22.1135 8.37901 21.4821 8.37901H6.12038L2.21013 8.62951L2.46515 9.25574L7.27402 4.7218L9.99419 1.86618C10.1885 1.66578 10.2978 1.37772 10.2978 1.07712C10.2978 0.450888 9.82418 0 9.22915 0C8.9377 0 8.68268 0.100197 8.41552 0.375741L0.376451 8.65456C0.13358 8.89252 0 9.18059 0 9.4937Z" fill="black"/>
</g>
<defs>
<clipPath id="clip0_1199_1294">
<rect width="23" height="19" fill="white"/>
</clipPath>
</defs>
</svg>
