<svg width="24" height="22" viewBox="0 0 24 22" fill="none" xmlns="http://www.w3.org/2000/svg">
<path fill-rule="evenodd" clip-rule="evenodd" d="M0.857178 2.57812C0.857178 1.15427 2.03893 0 3.49669 0V22C2.03893 22 0.857178 20.8457 0.857178 19.4219V2.57812ZM4.90442 22V0H20.7415C22.1992 0 23.381 1.15427 23.381 2.57812V19.4219C23.381 20.8457 22.1992 22 20.7415 22H4.90442ZM14.1427 7.52262C14.6685 6.83619 15.5118 6.38875 16.454 6.38875C18.0522 6.38875 19.3483 7.6599 19.3483 9.23106C19.3483 9.83613 19.2495 10.3954 19.0777 10.9141C18.2552 13.4564 15.72 14.9767 14.4655 15.3936C14.2885 15.4547 13.997 15.4547 13.8199 15.3936C12.5654 14.9767 10.0302 13.4564 9.2077 10.9141C9.03593 10.3954 8.93701 9.83613 8.93701 9.23106C8.93701 7.6599 10.2332 6.38875 11.8314 6.38875C12.7736 6.38875 13.6169 6.83619 14.1427 7.52262Z" fill="current"/>
</svg>
