<svg width="18" height="18" viewBox="0 0 18 18" fill="" xmlns="http://www.w3.org/2000/svg">
<path fill-rule="evenodd" clip-rule="evenodd" d="M0 2.10938C0 0.944399 0.944399 0 2.10938 0V18C0.944399 18 0 17.0556 0 15.8906V2.10938ZM3.23438 18V0H15.8906C17.0556 0 18 0.944399 18 2.10938V15.8906C18 17.0556 17.0556 18 15.8906 18H3.23438ZM10.6172 6.15487C11.0374 5.59325 11.7113 5.22716 12.4643 5.22716C13.7415 5.22716 14.7773 6.26719 14.7773 7.55269C14.7773 8.04774 14.6983 8.50537 14.561 8.9297C13.9037 11.0098 11.8777 12.2537 10.8751 12.5948C10.7337 12.6447 10.5007 12.6447 10.3593 12.5948C9.35667 12.2537 7.33067 11.0098 6.67336 8.9297C6.53608 8.50537 6.45704 8.04774 6.45704 7.55269C6.45704 6.26719 7.49291 5.22716 8.77008 5.22716C9.52307 5.22716 10.197 5.59325 10.6172 6.15487Z" fill="current"/>
</svg>
