<svg width="18" height="18" viewBox="0 0 24 22" fill="current" xmlns="http://www.w3.org/2000/svg">
<path d="M5.96023 0.601562C5.96023 0.269329 5.68448 0 5.34434 0C5.0042 0 4.72845 0.269329 4.72845 0.601562V3.35156C4.72845 3.6838 5.0042 3.95312 5.34434 3.95312C5.68448 3.95312 5.96023 3.6838 5.96023 3.35156V0.601562Z" fill="#333538"/>
<path d="M19.1578 0.601563C19.1578 0.269329 18.8821 0 18.5419 0C18.2018 0 17.926 0.269329 17.926 0.601563V3.00781C17.926 3.34005 18.2018 3.60938 18.5419 3.60938C18.8821 3.60938 19.1578 3.34005 19.1578 3.00781V0.601563Z" fill="#333538"/>
<path fill-rule="evenodd" clip-rule="evenodd" d="M0.857178 4.46851C0.857178 3.04464 2.03892 1.89038 3.49669 1.89038H20.7415C22.1992 1.89038 23.381 3.04464 23.381 4.46851H0.857178ZM0.857178 5.67163H23.381V19.4216C23.381 20.8454 22.1992 21.9998 20.7415 21.9998H3.49669C2.03892 21.9998 0.857178 20.8454 0.857178 19.4216V5.67163ZM11.7163 9.89599H10.3656V14.5486C10.3656 15.4702 9.71604 16.1247 8.68498 16.1299C7.65391 16.1247 6.99919 15.4702 6.99404 14.5486V9.89599H5.65366V14.6595C5.65881 16.2254 6.85485 17.2981 8.68498 17.2981C10.5048 17.2981 11.7111 16.2254 11.7163 14.6595V9.89599ZM13.0979 9.89599V17.1873H14.4383V14.72H15.8818C17.6036 14.72 18.5264 13.7078 18.5315 12.313C18.5264 10.9131 17.614 9.89599 15.9024 9.89599H13.0979ZM15.6961 13.6423H14.4383V10.9937H15.6961C16.7065 10.9937 17.1602 11.5325 17.1602 12.313C17.1602 13.0834 16.7065 13.6373 15.6961 13.6423Z" fill="current"/>
</svg>
