<svg width="18" height="30" viewBox="0 0 18 30" fill="none" xmlns="http://www.w3.org/2000/svg">
<g clip-path="url(#clip0_4486_5099)">
<path d="M0 14.9915C0 15.5643 0.213399 16.0498 0.692926 16.5027L14.4894 29.4158C14.8762 29.8 15.3578 29.9861 15.9294 29.9861C17.0852 29.9861 18 29.1272 18 28.0301C18 27.4769 17.7544 26.9915 17.363 26.609L4.92057 14.9884L17.363 3.37396C17.7576 2.98845 18 2.49218 18 1.95593C18 0.855682 17.0852 0 15.9294 0C15.3546 0 14.8762 0.185974 14.4894 0.556227L0.692926 13.4803C0.216584 13.9194 0.00318496 14.4156 0 14.9915Z" fill="black"/>
</g>
<defs>
<clipPath id="clip0_4486_5099">
<rect width="18" height="30" fill="white"/>
</clipPath>
</defs>
</svg>
