<svg width="16" height="10" viewBox="0 0 16 10" fill="none" xmlns="http://www.w3.org/2000/svg">
<g clip-path="url(#clip0_3011_4799)">
<path d="M15.7513 2.23797C15.9079 2.08688 16 1.86969 16 1.62418C16 1.13315 15.6408 0.764877 15.1618 0.764877C14.9223 0.764877 14.7012 0.849863 14.563 1.01039L7.5072 8.39471L8.49281 8.39471L1.43693 1.01039C1.28959 0.849862 1.0685 0.764876 0.838255 0.764876C0.359279 0.764876 7.75165e-07 1.13315 7.32238e-07 1.62418C7.10774e-07 1.86969 0.0921552 2.08688 0.248732 2.23797L7.37825 9.71671C7.53483 9.89613 7.76512 10 7.9954 10C8.23489 10 8.45596 9.89613 8.62176 9.71671L15.7513 2.23797Z" fill="#BFBFBF"/>
</g>
<defs>
<clipPath id="clip0_3011_4799">
<rect width="16" height="10" fill="white" transform="translate(16 10) rotate(-180)"/>
</clipPath>
</defs>
</svg>
