<svg width="16" height="10" viewBox="0 0 16 10" fill="none" xmlns="http://www.w3.org/2000/svg">
<g clip-path="url(#clip0_3011_4805)">
<path d="M0.248705 7.76203C0.0921127 7.91312 0 8.13031 0 8.37582C0 8.86685 0.35924 9.23512 0.838226 9.23512C1.07772 9.23512 1.29879 9.15014 1.43696 8.98961L8.4928 1.60529L7.50719 1.60529L14.5631 8.98961C14.7104 9.15014 14.9315 9.23512 15.1617 9.23512C15.6407 9.23512 16 8.86685 16 8.37582C16 8.13031 15.9078 7.91312 15.7513 7.76203L8.62175 0.283286C8.46517 0.103872 8.23488 0 8.0046 0C7.76511 0 7.54404 0.103872 7.37824 0.283286L0.248705 7.76203Z" fill="#BFBFBF"/>
</g>
<defs>
<clipPath id="clip0_3011_4805">
<rect width="16" height="10" fill="white"/>
</clipPath>
</defs>
</svg>
