<svg width="18" height="30" viewBox="0 0 18 30" fill="none" xmlns="http://www.w3.org/2000/svg">
<g clip-path="url(#clip0_4486_5103)">
<path d="M18 15.0085C18 14.4357 17.7866 13.9502 17.3071 13.4973L3.51065 0.584149C3.12385 0.199977 2.64219 0.0138746 2.07064 0.0138746C0.914828 0.0138745 2.54638e-06 0.872755 2.45046e-06 1.96995C2.40211e-06 2.52305 0.245615 3.00851 0.637019 3.39095L13.0794 15.0116L0.637017 26.626C0.242424 27.0115 2.17873e-07 27.5078 1.70993e-07 28.0441C7.48061e-08 29.1443 0.914825 30 2.07064 30C2.64538 30 3.12385 29.814 3.51065 29.4438L17.3071 16.5197C17.7834 16.0806 17.9968 15.5844 18 15.0085Z" fill="black"/>
</g>
<defs>
<clipPath id="clip0_4486_5103">
<rect width="18" height="30" fill="white" transform="translate(18 30) rotate(-180)"/>
</clipPath>
</defs>
</svg>
