<svg width="18" height="18" viewBox="0 0 18 18" fill="none" xmlns="http://www.w3.org/2000/svg">
<g clip-path="url(#clip0_1158_819)">
<path d="M0.349827 17.6415C0.824665 18.1157 1.62553 18.1097 2.07765 17.6476L8.79887 10.7777L15.5161 17.6455C15.9762 18.1157 16.7761 18.1228 17.242 17.6395C17.7079 17.1542 17.7099 16.3548 17.2498 15.8827L10.5326 9.00568L17.2498 2.13987C17.7099 1.66972 17.7168 0.861202 17.242 0.385023C16.7672 -0.100314 15.9762 -0.102324 15.5161 0.376982L8.79887 7.24279L2.07765 0.374972C1.62553 -0.0942835 0.815707 -0.111481 0.349827 0.383012C-0.114085 0.868349 -0.108186 1.67576 0.343928 2.13786L7.06515 9.00568L0.343928 15.8867C-0.108186 16.3468 -0.123045 17.1653 0.349827 17.6415Z" fill="black" fill-opacity="0.85"/>
</g>
<defs>
<clipPath id="clip0_1158_819">
<rect width="18" height="18" fill="white"/>
</clipPath>
</defs>
</svg>
