<svg width="21" height="21" viewBox="0 0 21 21" fill="none" xmlns="http://www.w3.org/2000/svg">
<path d="M10.0875 20.175C15.6141 20.175 20.1767 15.606 20.1767 10.0875C20.1767 4.56094 15.606 0 10.0795 0C4.56269 0 0 4.56094 0 10.0875C0 15.606 4.5707 20.175 10.0875 20.175ZM6.88183 14.2207C6.36757 14.2207 5.96855 13.8119 5.96855 13.2959C5.96855 13.0564 6.06074 12.8232 6.23808 12.6557L8.78496 10.0973L6.23808 7.54862C6.06074 7.37304 5.96855 7.14784 5.96855 6.90663C5.96855 6.38261 6.36757 5.9916 6.88183 5.9916C7.14511 5.9916 7.35077 6.08027 7.52987 6.25136L10.0875 8.80098L12.6647 6.24335C12.8518 6.05625 13.0574 5.97558 13.3127 5.97558C13.8269 5.97558 14.234 6.3746 14.234 6.89062C14.234 7.13808 14.1516 7.34725 13.9564 7.54061L11.4033 10.0973L13.9484 12.6477C14.1338 12.8152 14.226 13.0484 14.226 13.2959C14.226 13.8119 13.8189 14.2207 13.2967 14.2207C13.0334 14.2207 12.8037 14.132 12.6309 13.9512L10.0875 11.4051L7.55565 13.9512C7.37479 14.132 7.14511 14.2207 6.88183 14.2207Z" fill="#BFBFBF"/>
</svg>
