<svg width="33" height="28" viewBox="0 0 33 28" fill="none" xmlns="http://www.w3.org/2000/svg">
<g clip-path="url(#clip0_153_1818)">
<path d="M16.0195 24.0977C25.4883 24.0977 32.0273 16.4453 32.0273 14.0547C32.0273 11.6523 25.4766 4.01172 16.0195 4.01172C6.67969 4.01172 0 11.6523 0 14.0547C0 16.4453 6.66797 24.0977 16.0195 24.0977ZM16.0195 22.2461C8.29688 22.2461 2.05078 15.707 2.05078 14.0547C2.05078 12.6602 8.29688 5.86328 16.0195 5.86328C23.707 5.86328 29.9766 12.6602 29.9766 14.0547C29.9766 15.707 23.707 22.2461 16.0195 22.2461ZM16.0195 20.6172C19.6641 20.6172 22.5938 17.6289 22.5938 14.0547C22.5938 10.3867 19.6641 7.49219 16.0195 7.49219C12.3516 7.49219 9.42188 10.3867 9.42188 14.0547C9.42188 17.6289 12.3516 20.6172 16.0195 20.6172ZM16.0195 16.2344C14.8008 16.2344 13.8164 15.25 13.8164 14.0547C13.8164 12.8477 14.8008 11.875 16.0195 11.875C17.2266 11.875 18.2109 12.8477 18.2109 14.0547C18.2109 15.25 17.2266 16.2344 16.0195 16.2344Z" fill="black" fill-opacity="0.85"/>
</g>
<defs>
<clipPath id="clip0_153_1818">
<rect width="32.0273" height="20.0977" fill="white" transform="translate(0 4)"/>
</clipPath>
</defs>
</svg>
