<svg width="22" height="17" viewBox="0 0 22 17" fill="none" xmlns="http://www.w3.org/2000/svg">
<g clip-path="url(#clip0_3201_1632)">
<path d="M6.82959 6.75848C6.59535 7.29065 6.46674 7.88167 6.46674 8.50679C6.46674 10.8775 8.417 12.8581 10.8564 12.8581C11.4728 12.8581 12.0596 12.7296 12.5913 12.4975L14.7624 14.6602C13.5802 15.0748 12.2668 15.3232 10.8535 15.3232C4.46975 15.3232 0 10.1145 0 8.50541C0 7.58147 1.46436 5.48252 3.91847 3.8588L6.82959 6.75848ZM21.7048 8.50541C21.7048 9.42648 20.2697 11.5273 17.8236 13.1528L14.8795 10.2185C15.1116 9.6915 15.2395 9.11182 15.2395 8.50679C15.2395 6.07387 13.2762 4.15552 10.8564 4.15552C10.2447 4.15552 9.66393 4.27602 9.13696 4.49516L6.98511 2.35049C8.16113 1.9376 9.46185 1.69043 10.8535 1.69043C17.3191 1.69043 21.7048 6.89122 21.7048 8.50541ZM11.1776 11.0895C11.0729 11.1046 10.9654 11.1112 10.8564 11.1112C9.41364 11.1112 8.24508 9.94569 8.24508 8.50541C8.24508 8.39816 8.25161 8.29254 8.26624 8.18945L11.1776 11.0895ZM13.4611 8.50541C13.4611 8.60133 13.4559 8.69595 13.4452 8.78893L10.5716 5.92501C10.665 5.91413 10.7601 5.90897 10.8564 5.90897C12.2991 5.90897 13.4611 7.0679 13.4611 8.50541Z" fill="black" fill-opacity="0.85"/>
<path d="M17.0282 15.528C17.2747 15.7819 17.667 15.7949 17.9267 15.528C18.1849 15.261 18.1733 14.8858 17.9267 14.6318L4.40575 1.16256C4.16572 0.915214 3.75381 0.915214 3.49926 1.16256C3.26066 1.40196 3.26066 1.82074 3.49926 2.0587L17.0282 15.528Z" fill="black" fill-opacity="0.85"/>
</g>
<defs>
<clipPath id="clip0_3201_1632">
<rect width="22" height="17" fill="white"/>
</clipPath>
</defs>
</svg>
