<svg width="20" height="13" viewBox="0 0 20 13" fill="none" xmlns="http://www.w3.org/2000/svg">
<g clip-path="url(#clip0_3195_1214)">
<path d="M10.0037 12.9999C15.913 12.9999 20 8.04756 20 6.50376C20 4.95231 15.9056 0.00756836 10.0037 0.00756836C4.16821 0.00756836 0 4.95231 0 6.50376C0 8.04756 4.16821 12.9999 10.0037 12.9999ZM10.0037 10.7607C7.70195 10.7607 5.87238 8.8271 5.87238 6.50376C5.87238 4.11927 7.70195 2.24684 10.0037 2.24684C12.2833 2.24684 14.1277 4.11927 14.1277 6.50376C14.1277 8.8271 12.2833 10.7607 10.0037 10.7607ZM10.0037 8.03989C10.8226 8.03989 11.5013 7.34445 11.5013 6.50376C11.5013 5.65543 10.8226 4.95996 10.0037 4.95996C9.1774 4.95996 8.49871 5.65543 8.49871 6.50376C8.49871 7.34445 9.1774 8.03989 10.0037 8.03989Z" fill="#7C8188"/>
</g>
<defs>
<clipPath id="clip0_3195_1214">
<rect width="20" height="13" fill="white"/>
</clipPath>
</defs>
</svg>
