<svg width="102" height="102" viewBox="0 0 102 102" fill="none" xmlns="http://www.w3.org/2000/svg">
<path d="M10.9649 80.7924L10.8799 80.8774C9.7324 78.3699 9.0099 75.5224 8.7124 72.3774C9.0099 75.4799 9.8174 78.2849 10.9649 80.7924Z" fill="#BFBFBF"/>
<path d="M38.2498 44.1148C43.8361 44.1148 48.3648 39.5861 48.3648 33.9998C48.3648 28.4134 43.8361 23.8848 38.2498 23.8848C32.6634 23.8848 28.1348 28.4134 28.1348 33.9998C28.1348 39.5861 32.6634 44.1148 38.2498 44.1148Z" fill="#BFBFBF"/>
<path d="M68.8075 8.5H33.1925C17.7225 8.5 8.5 17.7225 8.5 33.1925V68.8075C8.5 73.44 9.3075 77.4775 10.88 80.8775C14.535 88.9525 22.355 93.5 33.1925 93.5H68.8075C84.2775 93.5 93.5 84.2775 93.5 68.8075V59.075V33.1925C93.5 17.7225 84.2775 8.5 68.8075 8.5ZM86.5725 53.125C83.2575 50.2775 77.9025 50.2775 74.5875 53.125L56.9075 68.2975C53.5925 71.145 48.2375 71.145 44.9225 68.2975L43.4775 67.1075C40.46 64.4725 35.6575 64.2175 32.2575 66.5125L16.3625 77.18C15.4275 74.8 14.875 72.0375 14.875 68.8075V33.1925C14.875 21.2075 21.2075 14.875 33.1925 14.875H68.8075C80.7925 14.875 87.125 21.2075 87.125 33.1925V53.5925L86.5725 53.125Z" fill="#BFBFBF"/>
</svg>
