<svg width="18" height="18" viewBox="0 0 18 18" fill="none" xmlns="http://www.w3.org/2000/svg">
<g clip-path="url(#clip0_950_1097)">
<path fill-rule="evenodd" clip-rule="evenodd" d="M2.10938 0C0.944399 0 0 0.944399 0 2.10938V15.8906C0 17.0556 0.944399 18 2.10938 18H15.8906C17.0556 18 18 17.0556 18 15.8906V2.10938C18 0.944399 17.0556 0 15.8906 0H2.10938ZM13.0358 14.0044H11.9384C11.3697 14.0044 11.0606 13.5927 11.0606 12.8334V5.11381C11.0606 4.35357 11.3697 3.9375 11.9384 3.9375H13.0358C13.6108 3.9375 13.9199 4.35357 13.9199 5.11284V12.8334C13.9199 13.5927 13.6108 14.0044 13.0358 14.0044ZM9.47585 14.0044H8.37842C7.80657 14.0044 7.49748 13.5927 7.49748 12.8334V6.67441C7.49748 5.91321 7.80657 5.49714 8.37842 5.49714H9.47585C10.0516 5.49714 10.3575 5.91321 10.3575 6.67249V12.8334C10.3575 13.5927 10.0516 14.0044 9.47585 14.0044ZM4.81843 14.0044H5.91269C6.48838 14.0044 6.79748 13.5927 6.79748 12.8334V8.23448C6.79748 7.47519 6.48838 7.05912 5.91269 7.05912H4.81843C4.24659 7.05912 3.9375 7.47519 3.9375 8.23641V12.8334C3.9375 13.5927 4.24659 14.0044 4.81843 14.0044Z" fill="current"/>
</g>
<defs>
<clipPath id="clip0_950_1097">
<rect width="18" height="18" fill="white"/>
</clipPath>
</defs>
</svg>
