<svg width="20" height="20" viewBox="0 0 20 20" fill="none" xmlns="http://www.w3.org/2000/svg">
<circle cx="10" cy="10" r="10" fill="current"/>
<g clip-path="url(#clip0_3204_1803)">
<path d="M14 9.99733C13.9915 9.66157 13.8719 9.3973 13.5787 9.12306L9.47627 5.29238C9.26531 5.09247 9.02352 5 8.72112 5C8.12192 5 7.62231 5.46699 7.62231 6.03552C7.62231 6.31853 7.74615 6.5828 7.9843 6.80301L11.4534 9.99327L7.9843 13.1917C7.75041 13.4078 7.62231 13.6749 7.62231 13.9632C7.62231 14.5277 8.12191 14.9987 8.72112 14.9987C9.015 14.9987 9.26531 14.9063 9.47627 14.7051L13.5787 10.8716C13.8762 10.5961 14 10.3291 14 9.99733Z" fill="white"/>
</g>
<defs>
<clipPath id="clip0_3204_1803">
<rect width="8" height="10" fill="white" transform="translate(6 5)"/>
</clipPath>
</defs>
</svg>
