<svg width="161" height="92" viewBox="0 0 161 92" fill="none" xmlns="http://www.w3.org/2000/svg">
<path d="M13.9756 52.7969V68.459H12.5869V52.7969H13.9756ZM5.66113 54.0098C7.98145 54.0273 9.65137 56.1367 9.65137 59.459C9.65137 62.7812 7.98145 64.8906 5.66113 64.8906C3.32324 64.8906 1.6709 62.7812 1.6709 59.459C1.6709 56.1367 3.32324 54.0273 5.66113 54.0098ZM5.66113 55.2402C4.09668 55.2578 3.00684 56.9102 3.00684 59.459C3.00684 62.0078 4.09668 63.6602 5.66113 63.6602C7.22559 63.6602 8.31543 62.0078 8.31543 59.459C8.31543 56.9102 7.22559 55.2578 5.66113 55.2402ZM24.7861 54.3438V64.5039H17.5615V54.3438H24.7861ZM18.915 55.4512V63.3789H23.4326V55.4512H18.915ZM29.5322 52.7969V68.459H28.1436V52.7969H29.5322ZM37.7939 57.5957C37.7939 60.25 39.7275 62.9395 42.0303 63.9414L41.2568 65.0312C39.4287 64.1963 37.8467 62.3945 37.126 60.2324C36.3877 62.5264 34.8145 64.5215 33.0303 65.418L32.2041 64.3281C34.4365 63.2559 36.3877 60.3027 36.4053 57.5957V55.5566H32.7139V54.4141H41.5205V55.5566H37.7939V57.5957ZM45.0889 52.7969V68.4238H43.7002V52.7969H45.0889ZM62.0518 60.0566V61.1465H47.7432V60.0566H62.0518ZM60.2588 62.3945V65.7168H50.8721V67.2109H60.7686V68.2129H49.4834V64.7676H58.8877V63.4316H49.4658V62.3945H60.2588ZM60.2061 53.2715V56.5059H50.9775V57.877H60.4873V58.8789H49.6064V55.5566H58.8174V54.2734H49.5537V53.2715H60.2061ZM80.4561 60.3203V61.4629H69.6631V54.2559H80.2979V55.3984H71.0342V60.3203H80.4561ZM82.1436 65.1367V66.2969H67.835V65.1367H82.1436ZM89.7725 54.502V59.9688H85.2549V63.5195C87.0479 63.5107 88.7441 63.4316 90.7744 63.0977L90.8975 64.2227C88.6826 64.6094 86.9072 64.6797 84.9385 64.6797H83.9189V58.8262H88.4365V55.6621H83.8838V54.502H89.7725ZM96.751 52.7969V68.4238H95.4326V60.127H93.1299V67.6152H91.8643V53.1484H93.1299V58.9844H95.4326V52.7969H96.751ZM111.271 54.4668V56.0312C111.271 58 111.271 60.2324 110.69 63.625L109.284 63.4844C109.917 60.2852 109.917 57.9473 109.917 56.0312V55.6094H100.495V54.4668H111.271ZM113.187 64.9785V66.1211H98.9482V64.9785H113.187ZM126.599 52.7969V59.248H129.218V60.3906H126.599V68.4238H125.228V52.7969H126.599ZM123.716 55.3105V56.4531H114.417V55.3105H118.442V52.9902H119.813V55.3105H123.716ZM119.146 57.7539C121.36 57.7539 122.96 59.2305 122.978 61.3398C122.96 63.4492 121.36 64.9258 119.146 64.9258C116.913 64.9258 115.296 63.4492 115.313 61.3398C115.296 59.2305 116.913 57.7539 119.146 57.7539ZM119.146 58.9141C117.687 58.9141 116.614 59.9336 116.632 61.3398C116.614 62.7637 117.687 63.7656 119.146 63.748C120.587 63.7656 121.642 62.7637 121.659 61.3398C121.642 59.9336 120.587 58.9141 119.146 58.9141ZM142.999 52.7969V68.4238H141.628V60.2324H137.901V59.0898H141.628V52.7969H142.999ZM137.937 54.502C137.937 58.9316 136.056 62.8691 130.835 65.4531L130.079 64.3457C134.315 62.2979 136.275 59.292 136.548 55.627H130.765V54.502H137.937ZM160.243 59.0371V60.1973H157.712V68.4238H156.341V52.7969H157.712V59.0371H160.243ZM147.64 54.3438V63.291C149.925 63.2822 152.254 63.1064 154.829 62.5703L155.005 63.748C152.315 64.293 149.89 64.4512 147.517 64.4512H146.269V54.3438H147.64ZM27.2471 73.7969V89.459H25.8584V73.7969H27.2471ZM18.9326 75.0098C21.2529 75.0273 22.9229 77.1367 22.9229 80.459C22.9229 83.7812 21.2529 85.8906 18.9326 85.8906C16.5947 85.8906 14.9424 83.7812 14.9424 80.459C14.9424 77.1367 16.5947 75.0273 18.9326 75.0098ZM18.9326 76.2402C17.3682 76.2578 16.2783 77.9102 16.2783 80.459C16.2783 83.0078 17.3682 84.6602 18.9326 84.6602C20.4971 84.6602 21.5869 83.0078 21.5869 80.459C21.5869 77.9102 20.4971 76.2578 18.9326 76.2402ZM42.3467 74.5703V75.6602C42.3467 76.8555 42.3467 78.209 41.9248 80.0723L40.5713 79.9141C40.9756 78.0947 40.9756 76.8291 40.9756 75.6777H31.624V74.5703H42.3467ZM44.1572 81.1445V82.252H29.9365V81.1445H35.8252V77.9805H37.1787V81.1445H44.1572ZM37.6709 84.2207C37.6709 86.2949 40.167 87.8594 43.0146 88.2812L42.4873 89.3535C40.0967 88.958 37.9258 87.8418 36.9854 86.1367C36.0273 87.8418 33.8564 88.958 31.4658 89.3535L30.9561 88.2812C33.7861 87.8594 36.2646 86.2949 36.2822 84.2207V83.5H37.6709V84.2207ZM52.5947 74.0781C56.0752 74.0781 58.1143 75.0273 58.1143 76.7676C58.1143 78.543 56.0752 79.4922 52.5947 79.5098C49.1143 79.4922 47.0576 78.543 47.0576 76.7676C47.0576 75.0273 49.1143 74.0781 52.5947 74.0781ZM52.5947 75.1152C49.9932 75.1152 48.4814 75.748 48.499 76.7676C48.4814 77.8574 49.9932 78.4551 52.5947 78.4551C55.1787 78.4551 56.708 77.8574 56.708 76.7676C56.708 75.748 55.1787 75.1152 52.5947 75.1152ZM59.7139 80.5645V81.6895H45.4756V80.5645H59.7139ZM57.8857 83.043V86.541H48.6045V88.1582H58.3604V89.248H47.2334V85.5215H56.5322V84.0977H47.1982V83.043H57.8857ZM77.9775 74.5703V75.748C77.9775 76.9521 77.9775 78.3672 77.6084 80.2129H79.7881V81.3379H65.5674V80.2129H76.2197C76.3691 79.4658 76.4658 78.7979 76.5186 78.1914L67.167 78.5957L66.9912 77.4883L76.5889 77.1895C76.6064 76.6885 76.6064 76.2051 76.6064 75.748V75.6953H67.3604V74.5703H77.9775ZM78.1006 82.8496V86.4531H68.6436V88.1055H78.6455V89.2129H67.2725V85.3984H76.7295V83.9219H67.2373V82.8496H78.1006ZM94.0088 73.8145V83.3594H92.6377V73.8145H94.0088ZM94.0088 84.2031V89.4238H92.6377V85.3457H83.4971V84.2031H94.0088ZM89.0342 74.7461V79.0527H83.2686V81.3203C86.0635 81.3203 88.1553 81.2324 90.6865 80.8457L90.8447 81.9707C88.2256 82.375 86.0811 82.4629 83.1982 82.4629H81.9326V77.9629H87.6631V75.8711H81.8975V74.7461H89.0342ZM108.757 73.7969V80.248H111.376V81.3906H108.757V89.4238H107.386V73.7969H108.757ZM105.874 76.3105V77.4531H96.5752V76.3105H100.601V73.9902H101.972V76.3105H105.874ZM101.304 78.7539C103.519 78.7539 105.118 80.2305 105.136 82.3398C105.118 84.4492 103.519 85.9258 101.304 85.9258C99.0713 85.9258 97.4541 84.4492 97.4717 82.3398C97.4541 80.2305 99.0713 78.7539 101.304 78.7539ZM101.304 79.9141C99.8447 79.9141 98.7725 80.9336 98.79 82.3398C98.7725 83.7637 99.8447 84.7656 101.304 84.748C102.745 84.7656 103.8 83.7637 103.817 82.3398C103.8 80.9336 102.745 79.9141 101.304 79.9141ZM116.86 78.2441C116.86 80.7227 118.073 83.4121 120.147 84.6426L119.356 85.7148C117.854 84.8008 116.772 83.1309 116.228 81.2324C115.647 83.3066 114.487 85.0908 112.923 86.0488L112.044 85.0117C114.206 83.7461 115.524 80.9688 115.524 78.2969V75.2734H116.86V78.2441ZM125.614 73.7969V89.4238H124.278V73.7969H125.614ZM122.38 74.1309V88.6328H121.079V80.582H118.425V79.4043H121.079V74.1309H122.38ZM142.085 86.2598V87.4199H127.776V86.2598H131.327V82.041C129.991 81.3467 129.183 80.2217 129.183 78.8066C129.183 76.3809 131.556 74.7988 134.896 74.7812C138.235 74.7988 140.608 76.3809 140.608 78.8066C140.608 80.1953 139.826 81.3115 138.534 82.0059V86.2598H142.085ZM134.896 75.9238C132.329 75.9062 130.519 77.0664 130.519 78.8066C130.519 80.5469 132.329 81.7246 134.896 81.7246C137.444 81.7246 139.272 80.5469 139.272 78.8066C139.272 77.0664 137.444 75.9062 134.896 75.9238ZM132.681 86.2598H137.146V82.5332C136.469 82.7178 135.713 82.8145 134.896 82.8145C134.096 82.8145 133.349 82.7266 132.681 82.5508V86.2598ZM144.985 88.1055C144.37 88.1055 143.843 87.5957 143.86 86.9629C143.843 86.3477 144.37 85.8379 144.985 85.8379C145.601 85.8379 146.11 86.3477 146.11 86.9629C146.11 87.5957 145.601 88.1055 144.985 88.1055Z" fill="#BFBFBF"/>
<g clip-path="url(#clip0_2602_7791)">
<path d="M58.852 0C58.3154 0 58 0.332294 58 0.866836V33.1165C58 33.6512 58.3154 33.964 58.852 33.964H102.131C102.686 33.964 103 33.6512 103 33.1165V0.866836C103 0.332294 102.686 0 102.131 0H58.852ZM59.3282 0.958847H101.672C101.883 0.958847 102.038 1.11412 102.038 1.32317V32.6409C102.038 32.8693 101.883 33.0231 101.672 33.0231H59.3282C59.1003 33.0231 58.9625 32.8693 58.9625 32.6409V1.32317C58.9625 1.11412 59.1003 0.958847 59.3282 0.958847ZM62.0532 3.45219C61.6752 3.45219 61.4472 3.66124 61.4472 4.05448V29.9289C61.4472 30.3028 61.6752 30.5312 62.0532 30.5312H98.93C99.3248 30.5312 99.554 30.3028 99.554 29.9289V4.05448C99.554 3.66124 99.3248 3.45219 98.93 3.45219H62.0532ZM62.6659 4.41977H98.3159C98.4994 4.41977 98.5647 4.4848 98.5647 4.66763V29.3158C98.5647 29.4805 98.4994 29.5636 98.3159 29.5636H62.6659C62.5005 29.5636 62.4185 29.4805 62.4185 29.3158V4.66763C62.4185 4.4848 62.5005 4.41977 62.6659 4.41977ZM99.1606 26.6199L88.8183 17.2782C87.9732 16.4933 87.1758 16.0938 86.0856 16.0938C85.0653 16.0938 84.2874 16.5086 83.4423 17.2394L75.7312 24.0947L72.4907 21.0468C71.7947 20.3923 71.1282 20.0302 70.2261 20.0302C69.3644 20.0302 68.7577 20.3923 68.0603 21.0454L61.8932 26.8802V29.2092C61.8932 29.7475 62.196 30.0909 62.6669 30.0909H98.3855C98.8577 30.0909 99.1606 29.7475 99.1606 29.2092V26.6199ZM73.2024 16.4935C75.3333 16.4935 77.1136 14.72 77.1136 12.5611C77.1136 10.4022 75.3333 8.61067 73.2024 8.61067C71.0353 8.61067 69.2551 10.4022 69.2551 12.5611C69.2551 14.72 71.0353 16.4935 73.2024 16.4935Z" fill="#BFBFBF"/>
</g>
<defs>
<clipPath id="clip0_2602_7791">
<rect width="45" height="34" fill="white" transform="translate(58)"/>
</clipPath>
</defs>
</svg>
