<svg width="13" height="13" viewBox="0 0 13 13" fill="none" xmlns="http://www.w3.org/2000/svg">
<path d="M6.10156 12.8223C2.79102 12.8223 0.0488281 10.0859 0.0488281 6.76953C0.0488281 3.45898 2.78516 0.716797 6.0957 0.716797C9.41211 0.716797 12.1543 3.45898 12.1543 6.76953C12.1543 10.0859 9.41211 12.8223 6.10156 12.8223ZM6.06641 4.76562C6.5293 4.76562 6.89844 4.39062 6.89844 3.92773C6.89844 3.45312 6.5293 3.08398 6.06641 3.08398C5.60352 3.08398 5.22852 3.45312 5.22852 3.92773C5.22852 4.39062 5.60352 4.76562 6.06641 4.76562ZM5.02344 10.1445H7.49609C7.77148 10.1445 7.98828 9.94531 7.98828 9.66406C7.98828 9.40625 7.77148 9.19531 7.49609 9.19531H6.82227V6.31836C6.82227 5.94922 6.63477 5.70898 6.28906 5.70898H5.13477C4.85938 5.70898 4.64844 5.91992 4.64844 6.17773C4.64844 6.45898 4.85938 6.6582 5.13477 6.6582H5.75V9.19531H5.02344C4.74805 9.19531 4.53711 9.40625 4.53711 9.66406C4.53711 9.94531 4.74805 10.1445 5.02344 10.1445Z" fill="#0F69F5"/>
</svg>
