<svg width="20" height="20" viewBox="0 0 20 20" fill="none" xmlns="http://www.w3.org/2000/svg">
<circle cx="10" cy="10" r="10" transform="matrix(-1 0 0 1 20 0)" fill="black"/>
<g clip-path="url(#clip0_3266_3522)">
<path d="M5.99976 9.99733C6.00827 9.66157 6.12783 9.3973 6.42102 9.12306L10.5235 5.29238C10.7344 5.09247 10.9762 5 11.2786 5C11.8778 5 12.3774 5.46699 12.3774 6.03552C12.3774 6.31853 12.2536 6.5828 12.0155 6.80301L8.54634 9.99327L12.0155 13.1917C12.2494 13.4078 12.3774 13.6749 12.3774 13.9632C12.3774 14.5277 11.8778 14.9987 11.2786 14.9987C10.9848 14.9987 10.7344 14.9063 10.5235 14.7051L6.42102 10.8716C6.12357 10.5961 5.99976 10.3291 5.99976 9.99733Z" fill="white"/>
</g>
<defs>
<clipPath id="clip0_3266_3522">
<rect width="8" height="10" fill="white" transform="matrix(-1 1.74846e-07 1.74846e-07 1 14 5)"/>
</clipPath>
</defs>
</svg>
