<svg width="24" height="19" viewBox="0 0 24 19" fill="none" xmlns="http://www.w3.org/2000/svg">
<g clip-path="url(#clip0_749_2566)">
<path d="M16.515 2.78135V7.07737H15.0684V2.80792C15.0684 1.92214 14.5922 1.42611 13.6577 1.42611H4.26795C3.33347 1.42611 2.84825 1.92214 2.84825 2.80792V16.1921C2.84825 17.0778 3.33347 17.565 4.26795 17.565H13.6577C14.5922 17.565 15.0684 17.0778 15.0684 16.1921V11.9138H16.515V16.2187C16.515 18.0699 15.5896 18.9911 13.7296 18.9911H4.18708C2.33609 18.9911 1.40161 18.0699 1.40161 16.2187V2.78135C1.40161 0.93893 2.33609 0 4.18708 0H13.7296C15.5896 0 16.515 0.93893 16.515 2.78135Z" fill="black" fill-opacity="0.85"/>
<path d="M9.72209 10.1954H18.9501L20.2889 10.1422L19.66 10.7446L18.2043 12.0821C18.0605 12.2061 17.9887 12.3922 17.9887 12.5605C17.9887 12.9325 18.2583 13.207 18.6177 13.207C18.8153 13.207 18.9591 13.1362 19.0939 13.0033L22.0231 10.0095C22.2028 9.83222 22.2657 9.67285 22.2657 9.49571C22.2657 9.30967 22.2028 9.15911 22.0231 8.98191L19.0939 5.98797C18.9591 5.85511 18.8153 5.77539 18.6177 5.77539C18.2583 5.77539 17.9887 6.04113 17.9887 6.41315C17.9887 6.5903 18.0605 6.77632 18.2043 6.90033L19.66 8.24672L20.2979 8.84904L18.9501 8.78704H9.72209C9.34467 8.78704 9.02124 9.11475 9.02124 9.49571C9.02124 9.87657 9.34467 10.1954 9.72209 10.1954Z" fill="black" fill-opacity="0.85"/>
</g>
<defs>
<clipPath id="clip0_749_2566">
<rect width="24" height="19" fill="white"/>
</clipPath>
</defs>
</svg>
