<svg width="18" height="18" viewBox="0 0 18 18" fill="none" xmlns="http://www.w3.org/2000/svg">
<g clip-path="url(#clip0_950_1074)">
<path fill-rule="evenodd" clip-rule="evenodd" d="M2.10938 0C0.944399 0 0 0.944399 0 2.10938V15.8906C0 17.0556 0.944399 18 2.10938 18H15.8906C17.0556 18 18 17.0556 18 15.8906V2.10938C18 0.944399 17.0556 0 15.8906 0H2.10938ZM3.3978 5.76562C3.3978 4.75598 4.21628 3.9375 5.22592 3.9375H12.8444C13.8541 3.9375 14.6725 4.75598 14.6725 5.76562V10.541C14.6725 11.5506 13.8541 12.3691 12.8444 12.3691H10.0916L6.76261 14.291C6.29385 14.5617 5.70793 14.2234 5.70793 13.6822V12.3691H5.22592C4.21628 12.3691 3.3978 11.5506 3.3978 10.541V5.76562Z" fill="current"/>
</g>
<defs>
<clipPath id="clip0_950_1074">
<rect width="18" height="18" fill="white"/>
</clipPath>
</defs>
</svg>
