<svg width="18" height="18" viewBox="0 0 18 18" fill="none" xmlns="http://www.w3.org/2000/svg">
<g clip-path="url(#clip0_950_1092)">
<path fill-rule="evenodd" clip-rule="evenodd" d="M2.10938 0C0.944399 0 0 0.944399 0 2.10938V15.8906C0 17.0556 0.944399 18 2.10938 18H15.8906C17.0556 18 18 17.0556 18 15.8906V2.10938C18 0.944399 17.0556 0 15.8906 0H2.10938ZM8.57803 12.2307C7.7654 12.1549 7.27041 11.7779 7.06648 11.1701C6.9002 10.817 6.65331 10.6148 6.27038 10.6148C5.76654 10.6148 5.48438 10.9193 5.48438 11.3723C5.48438 11.4823 5.50704 11.6154 5.55995 11.7536C5.86462 12.7352 6.94288 13.525 8.57803 13.6092V14.4201C8.57803 14.6249 8.70903 14.7656 8.90301 14.7656C9.097 14.7656 9.23051 14.6249 9.23051 14.4201V13.6055C11.0652 13.4909 12.3796 12.4939 12.3796 10.8733C12.3796 9.5016 11.5306 8.75177 9.7117 8.3321L9.23051 8.22277V5.7796C9.89872 5.86859 10.3524 6.22555 10.5884 6.80176C10.7799 7.16259 11.0419 7.33662 11.4097 7.33662C11.8808 7.33662 12.1629 7.07047 12.1629 6.65589C12.1629 6.5305 12.1428 6.4051 12.1025 6.27972C11.8056 5.27528 10.7604 4.50439 9.23051 4.39844V3.58244C9.23051 3.37771 9.097 3.23952 8.90301 3.23952C8.70903 3.23952 8.57803 3.37771 8.57803 3.58244V4.3939C6.79382 4.49325 5.53476 5.52113 5.53476 7.05C5.53476 8.40887 6.41147 9.19195 8.13464 9.59116L8.57803 9.6919V12.2307ZM8.57803 8.07178V5.77223C7.70017 5.85855 7.21259 6.31869 7.21259 6.89902C7.21259 7.48706 7.65721 7.83451 8.57803 8.07178ZM9.23051 9.84163V12.2314C10.1529 12.1535 10.7094 11.7427 10.7094 11.0524C10.7094 10.402 10.283 10.1001 9.23051 9.84163Z" fill="current"/>
</g>
<defs>
<clipPath id="clip0_950_1092">
<rect width="18" height="18" fill="white"/>
</clipPath>
</defs>
</svg>
