<svg width="26" height="22" viewBox="0 0 26 22" fill="current" xmlns="http://www.w3.org/2000/svg">
<g clip-path="url(#clip0_369_1150)">
<path d="M23.941 19.4574C23.941 19.9775 23.5173 20.403 22.9993 20.403H6.02698L7.92938 18.5H22.9993C23.5173 18.5 23.941 18.9373 23.941 19.4574Z" fill="#333538"/>
<path d="M4.83693 19.3156L17.6907 6.43165L15.6191 4.35131L2.77704 17.2352L1.64704 19.8712C1.5411 20.1548 1.83537 20.4858 2.11787 20.3676L4.83693 19.3156ZM18.7147 5.41511L19.9037 4.24493C20.5157 3.6421 20.551 2.99199 19.9978 2.44827L19.6093 2.04638C19.0679 1.51448 18.4205 1.56176 17.8319 2.15276L16.6313 3.33477L18.7147 5.41511Z" fill="current"/>
</g>
<defs>
<clipPath id="clip0_369_1150">
<rect width="26" height="22" fill="white"/>
</clipPath>
</defs>
</svg>
