<svg width="25" height="25" viewBox="0 0 25 25" fill="current" xmlns="http://www.w3.org/2000/svg">
<path d="M16.6463 4.98447H4.60334C3.36179 4.98447 2.66654 5.65489 2.66654 6.94609V21.0375C2.66654 22.3286 3.36179 22.9867 4.60334 22.9867H18.7445C19.9859 22.9867 20.6687 22.3286 20.6687 21.0375V9.10386L22.6677 7.10136V21.1368C22.6677 23.7068 21.364 24.9856 18.7693 24.9856H4.56609C1.9837 24.9856 0.667664 23.7068 0.667664 21.1368V6.83435C0.667664 4.2768 1.9837 2.9856 4.56609 2.9856H18.645L16.6463 4.98447Z" fill="current"/>
<path d="M8.78741 16.1739L11.1227 15.1767L22.3083 4.22934L20.6676 2.64532L9.494 13.5926L8.41614 15.7985C8.32034 15.998 8.55986 16.2679 8.78741 16.1739ZM23.1946 3.3728L24.0569 2.50452C24.464 2.08212 24.464 1.51891 24.0569 1.13172L23.7814 0.850107C23.4101 0.486375 22.8233 0.533306 22.4281 0.908776L21.5539 1.75358L23.1946 3.3728Z" fill="#333538"/>
</svg>
