<svg width="29" height="28" viewBox="0 0 29 28" fill="none" xmlns="http://www.w3.org/2000/svg">
<path d="M14.2808 14.91C14.199 14.8983 14.0938 14.8983 14.0003 14.91C11.9426 14.84 10.3059 13.16 10.3059 11.095C10.3059 8.98331 12.0128 7.26831 14.1405 7.26831C16.2566 7.26831 17.9752 8.98331 17.9752 11.095C17.9635 13.16 16.3384 14.84 14.2808 14.91Z" stroke="black" stroke-width="2" stroke-linecap="round" stroke-linejoin="round"/>
<path d="M22.0241 22.6101C19.9431 24.5117 17.184 25.6667 14.1444 25.6667C11.1047 25.6667 8.34564 24.5117 6.26465 22.6101C6.38156 21.5134 7.08302 20.4401 8.33395 19.6001C11.5373 17.4767 16.7748 17.4767 19.9548 19.6001C21.2057 20.4401 21.9072 21.5134 22.0241 22.6101Z" stroke="black" stroke-width="2" stroke-linecap="round" stroke-linejoin="round"/>
<path d="M14.1407 25.6666C20.5974 25.6666 25.8316 20.4432 25.8316 13.9999C25.8316 7.5566 20.5974 2.33325 14.1407 2.33325C7.68393 2.33325 2.44971 7.5566 2.44971 13.9999C2.44971 20.4432 7.68393 25.6666 14.1407 25.6666Z" stroke="black" stroke-width="2" stroke-linecap="round" stroke-linejoin="round"/>
</svg>
