<svg width="20" height="20" viewBox="0 0 20 20" fill="none" xmlns="http://www.w3.org/2000/svg">
<circle cx="10" cy="10" r="10" fill="black"/>
<g clip-path="url(#clip0_3266_3516)">
<path d="M14.0002 9.99733C13.9917 9.66157 13.8722 9.3973 13.579 9.12306L9.47652 5.29238C9.26555 5.09247 9.02376 5 8.72137 5C8.12216 5 7.62256 5.46699 7.62256 6.03552C7.62256 6.31853 7.74639 6.5828 7.98455 6.80301L11.4537 9.99327L7.98455 13.1917C7.75065 13.4078 7.62256 13.6749 7.62256 13.9632C7.62256 14.5277 8.12216 14.9987 8.72137 14.9987C9.01525 14.9987 9.26555 14.9063 9.47652 14.7051L13.579 10.8716C13.8764 10.5961 14.0002 10.3291 14.0002 9.99733Z" fill="white"/>
</g>
<defs>
<clipPath id="clip0_3266_3516">
<rect width="8" height="10" fill="white" transform="translate(6 5)"/>
</clipPath>
</defs>
</svg>
