<svg width="50" height="50" viewBox="0 0 50 50" fill="none" xmlns="http://www.w3.org/2000/svg">
<rect width="50" height="50" rx="25" fill="#333538"/>
<g clip-path="url(#clip0_2159_15)">
<path d="M29.0389 16.7001H17.9543C16.8179 16.7001 16.1907 17.3056 16.1907 18.5136V32.33C16.1907 33.5358 16.8179 34.1334 17.9543 34.1334H31.6014C32.7377 34.1334 33.3549 33.5358 33.3549 32.33V21.1777L35.7515 18.7398V32.5343C35.7515 35.1927 34.3803 36.5649 31.7403 36.5649H17.8076C15.1776 36.5649 13.7964 35.1927 13.7964 32.5343V18.2992C13.7964 15.6509 15.1776 14.2686 17.8076 14.2686H31.4332L29.0389 16.7001Z" fill="white"/>
<path d="M22.4233 28.2766L24.9098 27.2082L36.0692 15.8855L34.2036 14.0135L23.0564 25.3339L21.9543 27.7879C21.8345 28.0681 22.1427 28.3915 22.4233 28.2766ZM37.0022 14.9482L37.8558 14.0589C38.3262 13.5607 38.3372 12.8801 37.8712 12.4213L37.5504 12.0877C37.1342 11.6695 36.4474 11.7348 35.9913 12.1878L35.1365 13.0479L37.0022 14.9482Z" fill="white"/>
</g>
<defs>
<clipPath id="clip0_2159_15">
<rect width="30" height="30" fill="white" transform="translate(10 10)"/>
</clipPath>
</defs>
</svg>
