<svg width="70" height="69" viewBox="0 0 70 69" fill="none" xmlns="http://www.w3.org/2000/svg">
<path d="M34.3609 68.9659C53.2016 68.9659 68.7325 53.3563 68.7325 34.4829C68.7325 15.5858 53.1781 0 34.3373 0C15.5307 0 0 15.5858 0 34.4829C0 53.3563 15.5543 68.9659 34.3609 68.9659ZM34.3609 64.5066C17.7867 64.5066 4.46714 51.1158 4.46714 34.4829C4.46714 17.8498 17.763 4.44864 34.3373 4.44864C50.9115 4.44864 64.289 17.8498 64.289 34.4829C64.289 51.1158 50.935 64.5066 34.3609 64.5066Z" fill="#64686E"/>
<path d="M18.783 34.483C18.783 35.7416 19.7035 36.6414 21.026 36.6414H32.1286V47.8072C32.1286 49.1106 33.0491 50.0583 34.303 50.0583C35.6125 50.0583 36.5566 49.1451 36.5566 47.8072V36.6414H47.6829C48.9816 36.6414 49.9152 35.7416 49.9152 34.483C49.9152 33.169 48.9921 32.2214 47.6829 32.2214H36.5566V21.0795C36.5566 19.7417 35.6125 18.8154 34.303 18.8154C33.0491 18.8154 32.1286 19.7523 32.1286 21.0795V32.2214H21.026C19.6929 32.2214 18.783 33.169 18.783 34.483Z" fill="#64686E"/>
</svg>
