<svg width="25" height="24" viewBox="0 0 25 24" fill="none" xmlns="http://www.w3.org/2000/svg">
<path d="M23.7123 21.9767L19.2537 17.56C20.9844 15.4049 21.8225 12.6695 21.5957 9.91628C21.369 7.16303 20.0945 4.60118 18.0345 2.75751C15.9745 0.913839 13.2854 -0.0715191 10.5202 0.00404582C7.75505 0.0796108 5.12396 1.21035 3.16796 3.16377C1.21196 5.11719 0.0797161 7.74481 0.00405117 10.5063C-0.0716137 13.2678 0.915047 15.9534 2.76116 18.0107C4.60726 20.068 7.1725 21.3407 9.92939 21.5672C12.6863 21.7937 15.4253 20.9567 17.5832 19.2283L22.0058 23.645C22.1175 23.7575 22.2504 23.8468 22.3969 23.9077C22.5433 23.9686 22.7004 24 22.859 24C23.0177 24 23.1748 23.9686 23.3212 23.9077C23.4677 23.8468 23.6006 23.7575 23.7123 23.645C23.9289 23.4212 24.05 23.1221 24.05 22.8108C24.05 22.4996 23.9289 22.2005 23.7123 21.9767ZM10.8412 19.2283C9.17735 19.2283 7.55088 18.7355 6.16745 17.8124C4.78403 16.8892 3.70577 15.5771 3.06905 14.0419C2.43233 12.5068 2.26573 10.8175 2.59033 9.18784C2.91493 7.55813 3.71614 6.06115 4.89265 4.88619C6.06916 3.71124 7.56813 2.91108 9.19999 2.58691C10.8319 2.26274 12.5233 2.42912 14.0605 3.065C15.5977 3.70088 16.9115 4.77771 17.8359 6.15931C18.7603 7.54091 19.2537 9.16523 19.2537 10.8269C19.2537 13.0551 18.3674 15.192 16.7897 16.7675C15.2121 18.3431 13.0723 19.2283 10.8412 19.2283Z" fill="black"/>
</svg>
