<svg width="153" height="48" viewBox="0 0 153 48" fill="none" xmlns="http://www.w3.org/2000/svg">
<g clip-path="url(#clip0_2602_7440)">
<path d="M0 0H48.2671V7.01345H17.1344V8.44905H48.2671V15.2897H17.1344V16.6678H48.2671V23.3357H7.17226C2.61883 23.3398 0 20.6948 0 16.096V0ZM0 24.833H48.2671V33.8003H35.1771V36.5605C30.6236 37.3667 24.9868 37.5395 20.9466 36.906C19.2401 36.6181 18.1567 35.5856 18.0997 33.8003H0V24.833ZM16.6782 35.1825C16.2791 37.0212 18.2707 38.4033 23.7935 38.4609C32.9574 38.5761 40.0726 38.0002 48.2671 35.9311V45.3592C40.7528 47.3706 33.4665 48.0041 23.7935 48.0041C5.23766 48 -0.855295 44.0346 0.285098 35.1825H16.6782Z" fill="#3E86F7"/>
<path d="M52.3652 47.1979V32.0768C55.8353 31.0978 58.169 28.1114 58.169 19.8886V13.739C56.3485 14.43 54.1858 14.7756 52.3652 14.8331V0H71.7763V17.0174H73.2548V0H86.2878V47.1979H73.2548V29.7774H71.2632C69.3286 40.5834 61.9282 46.6796 52.3652 47.1979ZM100.632 47.1979H87.5993V0H100.632V47.1979Z" fill="#3E86F7"/>
<path d="M104.732 34.3762V0H133.821V13.1631C130.461 14.0269 125.284 14.3683 121.183 14.3683V32.7637C124.995 32.7637 130.004 32.303 134.387 31.0402V44.8367C131.369 46.3875 126.473 47.1362 122.775 47.1362H118.051C107.237 47.1362 104.732 42.9404 104.732 34.3721V34.3762ZM123.345 30.526V16.1536C127.386 15.9808 132.452 15.5201 136.549 14.8331V0H153V47.1979H136.549V28.7449C133.075 30.0077 127.214 30.526 123.345 30.526Z" fill="#3E86F7"/>
</g>
<defs>
<clipPath id="clip0_2602_7440">
<rect width="153" height="48" fill="white"/>
</clipPath>
</defs>
</svg>
