<svg width="177" height="49" viewBox="0 0 177 49" fill="none" xmlns="http://www.w3.org/2000/svg">
<g clip-path="url(#clip0_92_670)">
<path d="M45.8849 3.41923L0 0L6.86382 42.6462L23.2397 41.0846L40.9127 49L38.2644 39.6038L42.426 39.2269L45.8849 3.41923Z" fill="#0F69F5"/>
<path d="M11.7279 24.15L12.2414 27.3269L13.3223 34.0846L20.8076 33.3846L31.5627 38.2038L29.9414 32.4961L34.6163 32.0384L35.1568 26.4384L19.5105 27.0307L19.2403 24.3115L35.427 23.6654L35.9134 18.5769L10.9172 19.2231L11.7279 24.15Z" fill="white"/>
<path d="M9.21484 8.56152L10.3498 15.6154L36.1297 16.3423L36.6701 10.6077L9.21484 8.56152Z" fill="white"/>
<path d="M69.692 35.7269V32.8462H53.4783V26.7077H92.6615V32.8462H78.8257V35.7269H69.692ZM63.774 34.3538V36.7231H91.1212V43.3192H55.505V34.3538H63.801H63.774ZM84.7978 19.4923C85.6085 19.5462 86.4192 19.5462 87.1758 19.4923C87.8784 19.4923 88.554 19.4923 89.2025 19.4115C89.8241 19.4115 90.4456 19.3038 91.0131 19.2231V24.4731C90.1483 24.7692 88.9864 24.9577 87.5001 24.9846C85.9868 25.0654 84.3384 25.0654 82.5279 25.0654H55.8022V5.49231H90.2835V11.0654H63.8551V12.4923H89.8241V18.0654H63.8551V19.5192H84.7978V19.4923Z" fill="black"/>
<path d="M115.334 6.32692V10.9038C115.334 14.0538 115.091 17.0423 114.631 19.8154H118.982V5.49231H126.521V43.5346H118.982V27.3C118.414 27.3808 117.739 27.4346 117.036 27.4346C116.28 27.5154 115.523 27.5692 114.847 27.5692C114.091 27.6231 113.469 27.6231 112.902 27.6231H112.523C112.388 27.9462 112.28 28.2962 112.145 28.6192C109.956 33.6269 106.47 38.0154 101.633 41.7038L95.3909 36.05C98.9849 33.1692 101.822 29.9654 103.822 26.4115C105.822 22.9115 106.849 18.7115 106.957 13.8923H96.9042V6.35385H115.334V6.32692ZM128.845 43.5077V5.49231H136.331V43.5346H128.845V43.5077Z" fill="black"/>
<path d="M162.813 6.32692V13.4077H150.031V34.4077H157.219C158.543 34.4077 159.867 34.3538 161.192 34.1654C162.516 34.0577 163.597 33.8692 164.542 33.6V40.3577C163.678 40.8423 162.543 41.1115 161.219 41.2462C159.786 41.4346 158.435 41.4885 157.003 41.4885H141.222V6.32692H162.786H162.813ZM168.731 26.3846C167.839 26.5192 166.65 26.6269 165.137 26.6808C163.624 26.7615 162.191 26.7615 160.867 26.7615H159.246V19.2231H168.731V5.49231H177.027V43.5346H168.731V26.4115V26.3846Z" fill="black"/>
</g>
<defs>
<clipPath id="clip0_92_670">
<rect width="177" height="49" fill="white"/>
</clipPath>
</defs>
</svg>
